<?xml version="1.0" encoding="UTF-8"?>
<svg xmlns="http://www.w3.org/2000/svg" id="svg2" viewBox="0 0 288 160">
  <defs>
    <style>.cls-1{fill:#0dcaf0;}</style>
  </defs>
  <title>Design_ok</title>
  <path class="cls-1" d="M124,57.9l-8.4-8.4L108,57.14l8.4,8.4Zm41.45,41.45L128.58,62.49l-7.64,7.64L157.78,107a16.54,16.54,0,0,1,2.87-4.15A16.28,16.28,0,0,1,165.45,99.35Zm5.09,5.11a9.37,9.37,0,0,0-1.72.49,9.83,9.83,0,0,0-5.57,5.71,9.43,9.43,0,0,0-.39,1.38l0,0,8.68,1Zm6.17-3L179,120.54l-19.1-2.29L98.79,57.14,115.6,40.33Z"></path>
</svg>
