<?xml version="1.0" encoding="UTF-8"?>
<svg xmlns="http://www.w3.org/2000/svg" id="svg2" viewBox="0 0 288 160">
  <defs>
    <style>.cls-1{fill:#0dcaf0;}</style>
  </defs>
  <title>Ontwikkeling_ok</title>
  <path class="cls-1" d="M157.27,74.17l-21.9,21.9-4.64-4.64,21.9-21.91Z"></path>
  <path class="cls-1" d="M184.65,80.48a3.52,3.52,0,0,1,.31.35,3.67,3.67,0,0,1,.36.6,3.34,3.34,0,0,1-.11,2.94,3.41,3.41,0,0,1-.56.75L162.75,107l-4.65-4.64L177.68,82.8,158.1,63.22l4.65-4.65Z"></path>
  <path class="cls-1" d="M129.9,63.22,110.32,82.8l19.58,19.58L125.25,107l-21.9-21.9c-.14-.15-.18-.19-.31-.35a3.37,3.37,0,0,1-.36-.61,3.26,3.26,0,0,1,.67-3.68l21.9-21.91Z"></path>
</svg>
